<svg xmlns="http://www.w3.org/2000/svg" xmlns:xlink="http://www.w3.org/1999/xlink" width="500" zoomAndPan="magnify" viewBox="0 0 375 374.999991" height="500" preserveAspectRatio="xMidYMid meet" version="1.0"><defs><g/></defs><g fill="#0097b2" fill-opacity="1"><g transform="translate(59.892562, 201.962962)"><g><path d="M 7.890625 -13.828125 L 7.890625 -2.84375 L 22.859375 -2.84375 L 22.859375 0 L 4.4375 0 L 4.4375 -29.359375 L 22.53125 -29.359375 L 22.53125 -26.5 L 7.890625 -26.5 L 7.890625 -16.6875 L 20.796875 -16.6875 L 20.796875 -13.828125 Z M 7.890625 -13.828125 "/></g></g></g><g fill="#000000" fill-opacity="1"><g transform="translate(84.720654, 201.962962)"><g><path d="M 13.515625 -12.796875 L 2.09375 -12.796875 L 2.09375 -15.71875 L 13.515625 -15.71875 Z M 13.515625 -12.796875 "/></g></g></g><g fill="#000000" fill-opacity="1"><g transform="translate(100.304712, 201.962962)"><g><path d="M 8.8125 0.421875 C 7.25 0.421875 6.019531 -0.0195312 5.125 -0.90625 C 4.226562 -1.800781 3.78125 -3.132812 3.78125 -4.90625 L 3.78125 -31.046875 L 7.046875 -31.046875 L 7.046875 -5.125 C 7.046875 -4.195312 7.222656 -3.53125 7.578125 -3.125 C 7.929688 -2.71875 8.484375 -2.515625 9.234375 -2.515625 C 9.691406 -2.515625 10.15625 -2.585938 10.625 -2.734375 L 10.90625 -2.65625 L 11.28125 -0.078125 C 11.039062 0.078125 10.695312 0.195312 10.25 0.28125 C 9.800781 0.375 9.320312 0.421875 8.8125 0.421875 Z M 8.8125 0.421875 "/></g></g></g><g fill="#000000" fill-opacity="1"><g transform="translate(112.354241, 201.962962)"><g><path d="M 12.71875 0.421875 C 10.625 0.421875 8.800781 -0.0195312 7.25 -0.90625 C 5.707031 -1.789062 4.519531 -3.09375 3.6875 -4.8125 C 2.851562 -6.53125 2.4375 -8.613281 2.4375 -11.0625 C 2.4375 -13.507812 2.851562 -15.597656 3.6875 -17.328125 C 4.519531 -19.054688 5.707031 -20.363281 7.25 -21.25 C 8.800781 -22.132812 10.625 -22.578125 12.71875 -22.578125 C 14.800781 -22.578125 16.613281 -22.132812 18.15625 -21.25 C 19.707031 -20.363281 20.898438 -19.054688 21.734375 -17.328125 C 22.578125 -15.597656 23 -13.507812 23 -11.0625 C 23 -8.613281 22.578125 -6.53125 21.734375 -4.8125 C 20.898438 -3.09375 19.707031 -1.789062 18.15625 -0.90625 C 16.613281 -0.0195312 14.800781 0.421875 12.71875 0.421875 Z M 12.71875 -2.515625 C 14.925781 -2.515625 16.613281 -3.207031 17.78125 -4.59375 C 18.945312 -5.988281 19.53125 -8.144531 19.53125 -11.0625 C 19.53125 -14 18.945312 -16.160156 17.78125 -17.546875 C 16.613281 -18.941406 14.925781 -19.640625 12.71875 -19.640625 C 10.5 -19.640625 8.800781 -18.9375 7.625 -17.53125 C 6.445312 -16.132812 5.859375 -13.976562 5.859375 -11.0625 C 5.859375 -8.144531 6.445312 -5.988281 7.625 -4.59375 C 8.800781 -3.207031 10.5 -2.515625 12.71875 -2.515625 Z M 12.71875 -2.515625 "/></g></g></g></svg>